<svg width="79px" height="17px" viewBox="0 0 79 17" xmlns="http://www.w3.org/2000/svg" xmlns:xlink="http://www.w3.org/1999/xlink"><g fill="rgb(35,31,32)"><polygon fill="rgb(35,31,32)" points="11.9506206 0 6.78962861 5.64303288 6.74790266 5.59561619 7.78398666 0 3.13099151 0 0 17 4.65321592 17 5.56368052 12.023932 7.14926655 10.4055021 9.92017858 17 15.1449738 17 10.7882549 7.00044733 18 0"></polygon><polygon fill="rgb(35,31,32)" points="16.6458396 9 23 9 22.3550027 13 16 13"></polygon><polygon fill="rgb(35,31,32)" points="26.1924603 0 23 17 27.71465 17 28.9353097 10.5244912 34.9580811 10.5244912 35.7083271 6.47685082 29.6866742 6.47685082 30.0931134 4.35741445 37.1871216 4.35741445 38 0"></polygon><polygon fill="rgb(35,31,32)" points="39.0926845 0 36 17 47.2044078 17 48 12.6432565 41.39305 12.6432565 43.6923245 0"></polygon><polygon points="51.0235186 0 48 17 60.1379335 17 60.9095981 12.6432565 53.2365986 12.6432565 53.622431 10.5244912 60.6049156 10.5244912 61.3157709 6.47685082 54.3534148 6.47685082 54.7390352 4.35741445 62.2503708 4.35741445 63 0"></polygon><polygon points="73.3965137 0 70.3489486 4.4289868 68.8675182 0 63.7359563 0 67.2565663 8 60 17 65.7970963 17 69.3394426 12.2382017 71.035323 17 76.3383104 17 72.6240904 8 79 0"></polygon></g></svg>